<?xml version="1.0" encoding="utf-8"?>
<!-- Generator: Adobe Illustrator 25.3.0, SVG Export Plug-In . SVG Version: 6.00 Build 0)  -->
<svg version="1.1" id="레이어_1" xmlns="http://www.w3.org/2000/svg" xmlns:xlink="http://www.w3.org/1999/xlink" x="0px"
	 y="0px" width="66px" height="35px" viewBox="0 0 66 35" style="enable-background:new 0 0 66 35;" xml:space="preserve">
<style type="text/css">
	.st0{fill-rule:evenodd;clip-rule:evenodd;fill:#FFFFFF;}
</style>
<path id="로고" class="st0" d="M13.8,22.1h-6c0.5,0.8,0.7,1.8,0.7,2.8V31c0,2,0.7,2.6,2.8,2.6h18.7v-2.2H13.8V22.1z M20.3,3h-7.1
	V0.1H7.4C7.8,0.8,8,1.6,7.9,2.4V3H0.8v2.2h4.6C3.3,6.6,2,9.1,2,11.7c0.1,4.5,3.8,8.2,8.3,8.1c0.1,0,0.1,0,0.2,0
	c4.6,0.2,8.4-3.4,8.6-7.9c0-0.1,0-0.1,0-0.2c0-2.6-1.3-5.1-3.5-6.6h4.7L20.3,3L20.3,3z M10.5,17.6c-2.3,0-3.9-2.4-3.9-5.9
	c0-3.5,1.6-5.9,3.9-5.9c2.4,0,3.9,2.4,4,5.9C14.5,15.2,12.9,17.6,10.5,17.6L10.5,17.6z M28.7,0.8h-6c0.6,0.5,0.7,1.8,0.7,2.8v20.4
	h3.1c1.5,0,2.2-0.7,2.2-2.4V10.8H34V8.6h-5.2V0.8z M54.6,4.2c0.2-0.9-0.4-1.9-1.4-2c-0.1,0-0.3,0-0.4,0H38.7v2.2h10.5
	c0,7.8-4.6,12.7-12.3,14l1,1.5C47.8,18.7,53.8,14,54.6,4.2 M65.4,0.9h-6.1c0.7,0.8,1,1.8,0.9,2.8v2.4h-5.5v2.2h5.5v3.2h-5.7v2.2h5.7
	v5c-1.4-0.6-2.9-0.9-4.4-0.9c-5.2,0-9.5,3.5-9.5,8.5c0.1,5,4.4,8.5,9.6,8.5c5.2,0,9.5-3.5,9.6-8.5c0-0.1,0-0.2,0-0.3l0,0L65.4,0.9
	L65.4,0.9z M55.8,32.5c-2.8,0-4.6-2.5-4.7-6.2c0-3.6,1.9-6.2,4.7-6.2c2.8,0,4.7,2.5,4.7,6.2C60.5,30,58.7,32.5,55.8,32.5L55.8,32.5z
	"/>
</svg>
